<svg width="156" height="19" viewBox="0 0 156 19" fill="none" xmlns="http://www.w3.org/2000/svg">
<path d="M13.008 6.6V12.6C13.008 14.184 12.672 18.432 6.984 18.432C1.296 18.432 0.96 14.184 0.96 12.6V6.6C0.96 5.016 1.296 0.767999 6.984 0.767999C12.672 0.767999 13.008 5.016 13.008 6.6ZM8.88 11.328V7.872C8.88 6.024 8.76 4.896 6.984 4.896C5.208 4.896 5.088 6.024 5.088 7.872V11.328C5.088 13.176 5.208 14.304 6.984 14.304C8.76 14.304 8.88 13.176 8.88 11.328ZM20.1367 1.2C20.5687 1.2 20.8088 1.44 20.9047 1.848L22.6088 8.832C22.6568 9.072 22.8487 9.072 22.8967 8.832L24.6008 1.848C24.6968 1.44 24.9368 1.2 25.3687 1.2H30.3368C30.8168 1.2 31.0568 1.44 31.0568 1.92V17.28C31.0568 17.736 30.8168 18 30.3368 18H27.6488C27.1928 18 26.9288 17.736 26.9288 17.28V7.824C26.9288 7.656 26.7128 7.632 26.6648 7.8L24.3368 17.376C24.2408 17.784 23.9768 18 23.5448 18H21.9607C21.5288 18 21.2648 17.784 21.1688 17.376L18.8407 7.8C18.7927 7.632 18.5768 7.656 18.5768 7.824V17.28C18.5768 17.736 18.3368 18 17.8567 18H15.1687C14.6887 18 14.4487 17.736 14.4487 17.28V1.92C14.4487 1.44 14.6887 1.2 15.1687 1.2H20.1367ZM50.2519 1.2C50.7319 1.2 50.9719 1.44 50.9719 1.92V4.608C50.9719 5.064 50.7319 5.328 50.2519 5.328H44.2039C43.7479 5.328 43.4839 5.568 43.4839 6.048V6.816C43.4839 7.272 43.7479 7.536 44.2039 7.536H48.1639C48.6439 7.536 48.8839 7.776 48.8839 8.256V10.944C48.8839 11.4 48.6439 11.664 48.1639 11.664H44.2039C43.7479 11.664 43.4839 11.904 43.4839 12.384V17.28C43.4839 17.736 43.2439 18 42.7639 18H39.9319C39.4759 18 39.2119 17.736 39.2119 17.28V1.92C39.2119 1.44 39.4759 1.2 39.9319 1.2H50.2519ZM52.2632 1.2H54.9512C55.4312 1.2 55.6712 1.44 55.6712 1.92V11.328C55.6712 13.176 55.7912 14.304 57.5672 14.304C59.3432 14.304 59.4632 13.176 59.4632 11.328V1.92C59.4632 1.44 59.7272 1.2 60.1832 1.2H62.8712C63.3512 1.2 63.5912 1.44 63.5912 1.92V12.6C63.5912 14.184 63.2552 18.432 57.5672 18.432C51.8792 18.432 51.5432 14.184 51.5432 12.6V1.92C51.5432 1.44 51.8072 1.2 52.2632 1.2ZM75.2274 11.976L77.7714 16.704C78.1074 17.328 77.7234 18 76.9794 18H74.2434C74.0034 18 73.7874 17.88 73.6914 17.664L71.1954 12.84C71.1474 12.768 71.0754 12.72 71.0034 12.72H70.0434C69.6114 12.72 69.2994 13.032 69.2994 13.464V17.256C69.2994 17.688 68.9874 18 68.5554 18H65.8674C65.4354 18 65.1234 17.688 65.1234 17.256V1.944C65.1234 1.512 65.4354 1.2 65.8674 1.2H71.1234C75.3954 1.2 77.1234 3.024 77.1234 6.96C77.1234 9.192 76.5714 10.752 75.2994 11.664C75.2034 11.736 75.1794 11.856 75.2274 11.976ZM71.2674 5.328H70.0434C69.6114 5.328 69.2994 5.64 69.2994 6.072V7.848C69.2994 8.28 69.6114 8.592 70.0434 8.592H71.2674C72.4194 8.592 72.9954 8.448 72.9954 6.96C72.9954 5.472 72.4194 5.328 71.2674 5.328ZM82.878 1.2C83.286 1.2 83.55 1.368 83.718 1.752L86.982 9.744C87.078 9.96 87.27 9.912 87.27 9.672V1.92C87.27 1.44 87.534 1.2 87.99 1.2H90.678C91.158 1.2 91.398 1.44 91.398 1.92V17.28C91.398 17.736 91.158 18 90.678 18H87.15C86.742 18 86.478 17.832 86.31 17.448L83.046 9.456C82.95 9.24 82.758 9.288 82.758 9.528V17.28C82.758 17.736 82.518 18 82.038 18H79.35C78.894 18 78.63 17.736 78.63 17.28V1.92C78.63 1.44 78.894 1.2 79.35 1.2H82.878ZM96.4341 1.2C96.9141 1.2 97.1541 1.44 97.1541 1.92V17.28C97.1541 17.736 96.9141 18 96.4341 18H93.7941C93.3381 18 93.0741 17.736 93.0741 17.28V1.92C93.0741 1.44 93.3381 1.2 93.7941 1.2H96.4341ZM102.663 6.048C102.663 5.568 102.423 5.328 101.943 5.328H98.5828C98.1268 5.328 97.8628 5.064 97.8628 4.608V1.92C97.8628 1.44 98.1268 1.2 98.5828 1.2H110.871C111.351 1.2 111.591 1.44 111.591 1.92V4.608C111.591 5.064 111.351 5.328 110.871 5.328H107.511C107.055 5.328 106.791 5.568 106.791 6.048V17.28C106.791 17.736 106.551 18 106.071 18H103.383C102.927 18 102.663 17.736 102.663 17.28V6.048ZM112.882 1.2H115.57C116.05 1.2 116.29 1.44 116.29 1.92V11.328C116.29 13.176 116.41 14.304 118.186 14.304C119.962 14.304 120.082 13.176 120.082 11.328V1.92C120.082 1.44 120.346 1.2 120.802 1.2H123.49C123.97 1.2 124.21 1.44 124.21 1.92V12.6C124.21 14.184 123.874 18.432 118.186 18.432C112.498 18.432 112.162 14.184 112.162 12.6V1.92C112.162 1.44 112.426 1.2 112.882 1.2ZM135.846 11.976L138.39 16.704C138.726 17.328 138.342 18 137.598 18H134.862C134.622 18 134.406 17.88 134.31 17.664L131.814 12.84C131.766 12.768 131.694 12.72 131.622 12.72H130.662C130.23 12.72 129.918 13.032 129.918 13.464V17.256C129.918 17.688 129.606 18 129.174 18H126.486C126.054 18 125.742 17.688 125.742 17.256V1.944C125.742 1.512 126.054 1.2 126.486 1.2H131.742C136.014 1.2 137.742 3.024 137.742 6.96C137.742 9.192 137.19 10.752 135.918 11.664C135.822 11.736 135.798 11.856 135.846 11.976ZM131.886 5.328H130.662C130.23 5.328 129.918 5.64 129.918 6.072V7.848C129.918 8.28 130.23 8.592 130.662 8.592H131.886C133.038 8.592 133.614 8.448 133.614 6.96C133.614 5.472 133.038 5.328 131.886 5.328ZM150.049 1.2C150.529 1.2 150.769 1.44 150.769 1.92V4.608C150.769 5.064 150.529 5.328 150.049 5.328H144.241C143.785 5.328 143.521 5.568 143.521 6.048V6.816C143.521 7.272 143.785 7.536 144.241 7.536H147.961C148.441 7.536 148.681 7.776 148.681 8.256V10.944C148.681 11.4 148.441 11.664 147.961 11.664H144.241C143.785 11.664 143.521 11.904 143.521 12.384V13.152C143.521 13.608 143.785 13.872 144.241 13.872H150.049C150.529 13.872 150.769 14.112 150.769 14.592V17.28C150.769 17.76 150.529 18 150.049 18H139.969C139.513 18 139.249 17.736 139.249 17.28V1.92C139.249 1.44 139.513 1.2 139.969 1.2H150.049Z" fill="#031C32"/>
<path d="M155.056 13.872C155.536 13.872 155.776 14.112 155.776 14.592V17.28C155.776 17.736 155.536 18 155.056 18H152.368C151.912 18 151.648 17.736 151.648 17.28V14.592C151.648 14.112 151.912 13.872 152.368 13.872H155.056Z" fill="#1659E6"/>
</svg>
